HIERARCHY
ROOT Hips
{
	OFFSET 51.445999 -32.196014 97.091393
	CHANNELS 6 Xposition Yposition Zposition Xrotation Yrotation Zrotation
	JOINT spine
	{
		OFFSET 0.000000 -0.458069 7.965683
		CHANNELS 3 Xrotation Yrotation Zrotation
		JOINT spine1
		{
			OFFSET 0.000000 -0.000004 10.243103
			CHANNELS 3 Xrotation Yrotation Zrotation
			JOINT spine2
			{
				OFFSET 0.000000 0.000000 9.814751
				CHANNELS 3 Xrotation Yrotation Zrotation
				JOINT Neck
				{
					OFFSET 0.000000 -1.201385 25.198608
					CHANNELS 3 Xrotation Yrotation Zrotation
					JOINT Head
					{
						OFFSET 0.000000 -0.000004 7.613144
						CHANNELS 3 Xrotation Yrotation Zrotation
						End Site
						{
							OFFSET 0.000000 6.077328 18.428101
						}
					}
				}
				JOINT RightShoulder
				{
					OFFSET -4.132698 0.575447 10.599213
					CHANNELS 3 Xrotation Yrotation Zrotation
					JOINT RightArm
					{
						OFFSET 0.000000 0.000000 13.901794
						CHANNELS 3 Xrotation Yrotation Zrotation
						JOINT RightArmRoll
						{
							OFFSET 0.000000 -0.000004 7.017883
							CHANNELS 3 Xrotation Yrotation Zrotation
							JOINT RightForeArm
							{
								OFFSET 0.000000 -0.000004 20.440598
								CHANNELS 3 Xrotation Yrotation Zrotation
								JOINT RightForeArmRoll
								{
									OFFSET 0.000000 0.000000 7.875153
									CHANNELS 3 Xrotation Yrotation Zrotation
									JOINT RightHand
									{
										OFFSET 0.000000 -0.000004 15.803696
										CHANNELS 3 Xrotation Yrotation Zrotation
										End Site
										{
											OFFSET 0.000000 0.000000 0.100006
										}
									}
								}
							}
						}
					}
				}
				JOINT LeftShoulder
				{
					OFFSET 4.132698 0.575447 10.599213
					CHANNELS 3 Xrotation Yrotation Zrotation
					JOINT LeftArm
					{
						OFFSET 0.000000 0.000000 13.901794
						CHANNELS 3 Xrotation Yrotation Zrotation
						JOINT LeftArmRoll
						{
							OFFSET 0.000000 -0.000004 7.017883
							CHANNELS 3 Xrotation Yrotation Zrotation
							JOINT LeftForeArm
							{
								OFFSET 0.000000 -0.000004 20.440598
								CHANNELS 3 Xrotation Yrotation Zrotation
								JOINT LeftForeArmRoll
								{
									OFFSET 0.000000 0.000000 7.875153
									CHANNELS 3 Xrotation Yrotation Zrotation
									JOINT LeftHand
									{
										OFFSET 0.000000 -0.000004 15.803696
										CHANNELS 3 Xrotation Yrotation Zrotation
										End Site
										{
											OFFSET 0.000000 0.000000 0.100006
										}
									}
								}
							}
						}
					}
				}
			}
		}
	}
	JOINT RightUpLeg
	{
		OFFSET -7.060478 1.086100 -1.294701
		CHANNELS 3 Xrotation Yrotation Zrotation
		JOINT RightUpLegRoll
		{
			OFFSET 0.000000 -0.000004 18.530800
			CHANNELS 3 Xrotation Yrotation Zrotation
			JOINT RightLeg
			{
				OFFSET 0.000000 0.000004 -22.947601
				CHANNELS 3 Xrotation Yrotation Zrotation
				JOINT RightLegRoll
				{
					OFFSET 0.000000 -0.000004 23.022598
					CHANNELS 3 Xrotation Yrotation Zrotation
					JOINT RightFoot
					{
						OFFSET 0.000000 -0.000002 19.162514
						CHANNELS 3 Xrotation Yrotation Zrotation
						JOINT RightToeBase
						{
							OFFSET 0.000000 -0.000004 16.018799
							CHANNELS 3 Xrotation Yrotation Zrotation
							End Site
							{
								OFFSET 0.006790 0.894207 7.757812
							}
						}
					}
				}
			}
		}
	}
	JOINT LeftUpLeg
	{
		OFFSET 7.060478 1.086100 -1.294701
		CHANNELS 3 Xrotation Yrotation Zrotation
		JOINT LeftUpLegRoll
		{
			OFFSET 0.000000 -0.000004 18.530899
			CHANNELS 3 Xrotation Yrotation Zrotation
			JOINT LeftLeg
			{
				OFFSET 0.000000 -0.000004 22.947510
				CHANNELS 3 Xrotation Yrotation Zrotation
				JOINT LeftLegRoll
				{
					OFFSET 0.000000 -0.000004 23.235504
					CHANNELS 3 Xrotation Yrotation Zrotation
					JOINT LeftFoot
					{
						OFFSET 0.000000 -0.000002 18.949600
						CHANNELS 3 Xrotation Yrotation Zrotation
						JOINT LeftToeBase
						{
							OFFSET 0.000000 -0.000004 16.018799
							CHANNELS 3 Xrotation Yrotation Zrotation
							End Site
							{
								OFFSET -0.030430 0.894207 7.757812
							}
						}
					}
				}
			}
		}
	}
}
MOTION
Frames: 9
Frame Time: 0.041667
50.051109 -19.588909 93.718498 11.699488 -2.217942 -4.271152 0.633813 0.073165 -0.320287 5.270856 0.139618 -0.639658 6.915901 0.131964 -0.641284 -36.702500 13.148790 2.973084 17.601083 -15.491747 0.497618 -7.804303 -57.833800 -9.130632 -51.423466 -138.241909 -64.159150 0.000001 0.000000 -0.000000 13.561265 -17.367656 1.517243 -0.000008 0.000004 -3.000010 -5.000177 -7.999046 0.000097 -20.215147 59.402592 23.894609 124.092721 45.347009 -104.571829 -0.000001 0.000017 -0.000001 27.263269 18.663632 -3.716992 -0.000012 -0.000001 3.000001 -5.000024 7.998915 -0.000108 -33.816444 -178.939823 -3.555216 179.999991 -0.000005 -0.858003 151.373139 1.681054 -0.978660 -0.000003 -0.000001 0.341787 68.191543 6.954302 2.025709 25.456894 -7.349628 -0.000005 -34.289821 174.347764 1.680065 -0.000022 -0.000004 -0.831330 -27.918064 1.787136 1.214416 -0.000003 -0.000000 -0.434521 69.194877 -6.917170 -2.050955 25.456948 7.352267 -0.000008 
50.068012 -19.649612 93.785789 11.591179 -2.214524 -4.297101 0.621016 0.071715 -0.319347 5.245255 0.136834 -0.637752 6.890300 0.129247 -0.639343 -36.402586 13.148889 2.960993 17.482477 -15.458368 0.498529 -7.786390 -57.855186 -9.111004 -51.436027 -138.091836 -64.149437 0.000000 0.000000 -0.000000 13.601649 -17.384908 1.527386 -0.000006 0.000005 -3.000008 -5.000176 -7.999041 0.000101 -20.206515 59.433424 23.884120 124.074566 45.522671 -104.568502 -0.000002 0.000016 0.000000 27.300464 18.691045 -3.731571 -0.000011 -0.000001 3.000000 -5.000020 7.998917 -0.000107 -33.461797 -178.919592 -3.539620 179.999991 -0.000005 -0.858004 151.706015 1.681957 -0.971802 -0.000003 -0.000000 0.334584 68.177138 6.954696 2.024893 25.456890 -7.349628 -0.000006 -33.907030 174.341494 1.656522 -0.000020 -0.000004 -0.831744 -27.562516 1.803492 1.202364 -0.000003 -0.000001 -0.428541 69.204829 -6.916580 -2.051724 25.456948 7.352269 -0.000008 
50.087013 -19.734608 93.871300 11.479955 -2.209864 -4.324113 0.608412 0.070317 -0.318111 5.220043 0.134168 -0.635264 6.865089 0.126675 -0.636821 -36.091689 13.143254 2.946834 17.357049 -15.418990 0.498907 -7.768573 -57.879276 -9.091691 -51.450616 -137.942651 -64.139397 0.000001 -0.000000 0.000000 13.636429 -17.401555 1.536656 -0.000007 0.000004 -3.000010 -5.000174 -7.999045 0.000095 -20.210007 59.468811 23.887881 124.049199 45.693655 -104.556051 -0.000001 0.000017 0.000001 27.329672 18.720968 -3.745927 -0.000012 -0.000001 2.999997 -5.000020 7.998918 -0.000105 -33.104144 -178.900918 -3.523253 179.999991 -0.000005 -0.858003 152.039287 1.682769 -0.964949 -0.000003 -0.000001 0.327396 68.162720 6.955043 2.023969 25.456885 -7.349628 -0.000005 -33.521281 174.332901 1.631063 -0.000021 -0.000004 -0.832221 -27.206962 1.820165 1.190296 -0.000003 -0.000001 -0.422590 69.214070 -6.916053 -2.052348 25.456948 7.352268 -0.000008 
50.074409 -19.835012 93.962181 11.366120 -2.204015 -4.351987 0.595975 0.068960 -0.316625 5.195165 0.131593 -0.632289 6.840200 0.124215 -0.633814 -35.771296 13.132441 2.931016 17.225930 -15.374160 0.498977 -7.751017 -57.905954 -9.072887 -51.467323 -137.794422 -64.129329 0.000000 -0.000000 0.000001 13.666349 -17.417751 1.545230 -0.000007 0.000005 -3.000007 -5.000179 -7.999045 0.000098 -20.223639 59.507818 23.903603 124.017493 45.860550 -104.535567 -0.000001 0.000016 0.000000 27.352186 18.752930 -3.760139 -0.000014 -0.000002 3.000002 -5.000025 7.998915 -0.000103 -32.744070 -178.882982 -3.506683 179.999991 -0.000005 -0.858003 152.372354 1.683510 -0.959054 -0.000003 -0.000001 0.320230 68.148376 6.955285 2.023317 25.456887 -7.349628 -0.000004 -33.133108 174.322929 1.603397 -0.000022 -0.000004 -0.832756 -26.851712 1.837144 1.178224 -0.000003 -0.000001 -0.416675 69.222676 -6.915531 -2.053115 25.456948 7.352269 -0.000008 
50.086807 -19.914417 94.041992 11.250180 -2.197039 -4.380550 0.583674 0.067632 -0.314933 5.170552 0.129082 -0.628920 6.815586 0.121830 -0.630413 -35.442815 13.116530 2.913613 17.090262 -15.324057 0.498827 -7.733886 -57.935235 -9.054770 -51.485976 -137.647026 -64.119637 -0.000000 0.000000 0.000001 13.691838 -17.433657 1.553167 -0.000008 0.000005 -3.000009 -5.000176 -7.999045 0.000097 -20.246002 59.549455 23.929546 123.980487 46.024178 -104.508123 -0.000001 0.000015 0.000001 27.368706 18.786565 -3.774097 -0.000013 0.000001 3.000002 -5.000023 7.998915 -0.000110 -32.382176 -178.866631 -3.489407 179.999991 -0.000005 -0.858004 152.704944 1.683253 -0.952594 -0.000003 -0.000001 0.313095 68.134115 6.955454 2.022550 25.456890 -7.349628 -0.000005 -32.743288 174.310662 1.574253 -0.000019 -0.000005 -0.833346 -26.497256 1.854394 1.166170 -0.000003 -0.000001 -0.410801 69.230763 -6.915052 -2.053721 25.456947 7.352268 -0.000008 
50.075611 -20.082409 94.148987 11.132425 -2.188993 -4.409623 0.571482 0.066320 -0.313085 5.146163 0.126605 -0.625254 6.791197 0.119487 -0.626716 -35.107702 13.095949 2.894933 16.951578 -15.268931 0.498710 -7.717356 -57.967057 -9.037579 -51.507713 -137.500082 -64.111748 -0.000000 -0.000000 0.000001 13.713428 -17.449346 1.560576 -0.000004 0.000005 -3.000011 -5.000177 -7.999044 0.000100 -20.275055 59.592717 23.963389 123.939178 46.185230 -104.475038 -0.000001 0.000015 -0.000001 27.380504 18.821310 -3.787825 -0.000015 -0.000001 2.999999 -5.000019 7.998916 -0.000106 -32.019165 -178.851932 -3.471467 179.999991 -0.000005 -0.858003 153.036617 1.683797 -0.946623 -0.000003 -0.000001 0.305996 68.119860 6.955618 2.021880 25.456890 -7.349627 -0.000007 -32.352441 174.297029 1.543360 -0.000024 -0.000004 -0.833986 -26.144110 1.871943 1.154148 -0.000003 -0.000001 -0.404975 69.238447 -6.914584 -2.054456 25.456947 7.352268 -0.000008 
50.077812 -20.147312 94.220490 11.013369 -2.179938 -4.439035 0.559370 0.065014 -0.311123 5.121923 0.124137 -0.621387 6.766966 0.117151 -0.622814 -34.767606 13.070948 2.875219 16.810858 -15.209271 0.498742 -7.701600 -58.001447 -9.021486 -51.531609 -137.354134 -64.104884 -0.000000 -0.000000 -0.000000 13.731551 -17.464973 1.567516 -0.000007 0.000005 -3.000009 -5.000175 -7.999046 0.000097 -20.309281 59.636793 24.003300 123.896053 46.343155 -104.439931 -0.000001 0.000017 0.000002 27.388483 18.856735 -3.801305 -0.000012 0.000001 3.000001 -5.000023 7.998918 -0.000105 -31.655727 -178.838887 -3.452854 179.999991 -0.000005 -0.858003 153.366994 1.684228 -0.940582 -0.000003 -0.000000 0.298941 68.105674 6.955713 2.021195 25.456892 -7.349626 -0.000005 -31.961334 174.281197 1.511428 -0.000021 -0.000004 -0.834669 -25.792555 1.889796 1.142169 -0.000003 -0.000001 -0.399201 69.245906 -6.914140 -2.055009 25.456947 7.352270 -0.000007 
50.057808 -20.243210 94.297485 10.893207 -2.169932 -4.468601 0.547309 0.063701 -0.309097 5.097802 0.121651 -0.617408 6.742833 0.114790 -0.618805 -34.423949 13.041828 2.854694 16.669377 -15.145253 0.499080 -7.686767 -58.038289 -9.006690 -51.559254 -137.207955 -64.101489 -0.000000 0.000000 -0.000000 13.746849 -17.480698 1.574127 -0.000010 0.000005 -3.000009 -5.000178 -7.999044 0.000099 -20.346758 59.680567 24.047052 123.852339 46.498832 -104.403881 -0.000002 0.000016 -0.000001 27.393623 18.892431 -3.814480 -0.000013 -0.000000 3.000002 -5.000020 7.998915 -0.000108 -31.292378 -178.826688 -3.434221 179.999991 -0.000005 -0.858003 153.695662 1.684558 -0.934482 -0.000003 -0.000001 0.291936 68.091508 6.955802 2.020605 25.456890 -7.349629 -0.000006 -31.570552 174.264845 1.477656 -0.000022 -0.000004 -0.835394 -25.443109 1.907913 1.130245 -0.000003 -0.000000 -0.393487 69.253262 -6.913692 -2.055667 25.456948 7.352269 -0.000007 
50.053707 -20.342209 94.377983 10.772441 -2.159057 -4.498159 0.535273 0.062368 -0.307051 5.073723 0.119119 -0.613419 6.718756 0.112367 -0.614781 -34.078160 13.008926 2.833565 16.528417 -15.077060 0.499819 -7.673081 -58.077665 -8.993435 -51.589307 -137.062909 -64.099912 0.000001 -0.000000 -0.000001 13.759743 -17.496593 1.580470 -0.000007 0.000003 -3.000012 -5.000176 -7.999045 0.000097 -20.385820 59.723044 24.092640 123.808817 46.652846 -104.368227 -0.000002 0.000016 -0.000000 27.397038 18.927950 -3.827410 -0.000013 0.000001 3.000000 -5.000022 7.998915 -0.000104 -30.929900 -178.815322 -3.415512 179.999991 -0.000005 -0.858003 154.022132 1.684772 -0.928271 -0.000004 -0.000001 0.284988 68.077418 6.955857 2.020003 25.456894 -7.349628 -0.000005 -31.180852 174.247169 1.442798 -0.000019 -0.000005 -0.836157 -25.096166 1.926339 1.118392 -0.000003 -0.000001 -0.387835 69.260543 -6.913307 -2.056143 25.456947 7.352269 -0.000008 
